<svg xmlns="http://www.w3.org/2000/svg" viewBox="0 0 1200 750" role="img" aria-label="Admin Dashboard Screenshot Style">
  <defs>
    <linearGradient id="bg" x1="0" x2="1" y1="0" y2="1">
      <stop offset="0%" stop-color="#f8fafc"/>
      <stop offset="100%" stop-color="#eef2ff"/>
    </linearGradient>
  </defs>
  <rect width="1200" height="750" fill="url(#bg)"/>
  <rect x="28" y="22" width="1144" height="62" rx="14" fill="#fff" stroke="#dbe3ee"/>
  <rect x="46" y="40" width="140" height="24" rx="8" fill="#0f766e"/>
  <rect x="875" y="38" width="120" height="30" rx="10" fill="#fff" stroke="#cfd8e6"/>
  <rect x="1010" y="38" width="140" height="30" rx="10" fill="#115e59"/>

  <rect x="28" y="100" width="1144" height="118" rx="18" fill="#fff" stroke="#dbe3ee"/>
  <rect x="54" y="124" width="260" height="18" rx="8" fill="#0f172a"/>
  <rect x="54" y="152" width="340" height="12" rx="6" fill="#cfd8e6"/>
  <rect x="54" y="174" width="200" height="12" rx="6" fill="#cfd8e6"/>
  <rect x="824" y="126" width="150" height="72" rx="14" fill="#f8fafc" stroke="#dbe3ee"/>
  <rect x="992" y="126" width="150" height="72" rx="14" fill="#f8fafc" stroke="#dbe3ee"/>

  <rect x="28" y="236" width="366" height="230" rx="16" fill="#ffffff" stroke="#dbe3ee"/>
  <rect x="48" y="262" width="160" height="14" rx="7" fill="#0f172a"/>
  <rect x="48" y="286" width="290" height="10" rx="5" fill="#cfd8e6"/>
  <rect x="48" y="318" width="328" height="44" rx="12" fill="#f8fafc" stroke="#dbe3ee"/>
  <rect x="48" y="372" width="328" height="44" rx="12" fill="#f8fafc" stroke="#dbe3ee"/>
  <rect x="48" y="426" width="140" height="28" rx="10" fill="#115e59"/>

  <rect x="408" y="236" width="366" height="230" rx="16" fill="#ffffff" stroke="#dbe3ee"/>
  <rect x="428" y="262" width="180" height="14" rx="7" fill="#0f172a"/>
  <rect x="428" y="286" width="310" height="10" rx="5" fill="#cfd8e6"/>
  <rect x="428" y="316" width="328" height="54" rx="12" fill="#f8fafc" stroke="#dbe3ee"/>
  <rect x="428" y="380" width="328" height="54" rx="12" fill="#f8fafc" stroke="#dbe3ee"/>

  <rect x="788" y="236" width="384" height="230" rx="16" fill="#ffffff" stroke="#dbe3ee"/>
  <rect x="808" y="262" width="160" height="14" rx="7" fill="#0f172a"/>
  <rect x="808" y="286" width="330" height="10" rx="5" fill="#cfd8e6"/>
  <rect x="808" y="316" width="346" height="42" rx="12" fill="#f8fafc" stroke="#dbe3ee"/>
  <rect x="808" y="368" width="346" height="42" rx="12" fill="#f8fafc" stroke="#dbe3ee"/>
  <rect x="808" y="420" width="102" height="28" rx="10" fill="#fff" stroke="#cfd8e6"/>
  <rect x="922" y="420" width="102" height="28" rx="10" fill="#fff" stroke="#cfd8e6"/>
  <rect x="1036" y="420" width="118" height="28" rx="10" fill="#ef4444"/>

  <rect x="28" y="484" width="1144" height="238" rx="16" fill="#ffffff" stroke="#dbe3ee"/>
  <rect x="52" y="512" width="220" height="14" rx="7" fill="#0f172a"/>
  <rect x="52" y="536" width="420" height="10" rx="5" fill="#cfd8e6"/>
  <rect x="52" y="568" width="1096" height="58" rx="12" fill="#f8fafc" stroke="#dbe3ee"/>
  <rect x="52" y="636" width="1096" height="58" rx="12" fill="#f8fafc" stroke="#dbe3ee"/>
</svg>
