<svg xmlns="http://www.w3.org/2000/svg" viewBox="0 0 1200 750" role="img" aria-label="Public Quiz Player Screenshot Style">
  <defs>
    <linearGradient id="hero" x1="0" x2="1" y1="0" y2="1">
      <stop offset="0%" stop-color="#0f172a"/>
      <stop offset="100%" stop-color="#115e59"/>
    </linearGradient>
  </defs>
  <rect width="1200" height="750" fill="#f1f5f9"/>
  <rect x="120" y="50" width="960" height="300" rx="22" fill="url(#hero)"/>
  <rect x="150" y="85" width="390" height="18" rx="8" fill="#cbd5e1"/>
  <rect x="150" y="116" width="620" height="44" rx="12" fill="#ffffff"/>
  <rect x="150" y="171" width="540" height="16" rx="8" fill="#cbd5e1"/>
  <rect x="150" y="198" width="510" height="16" rx="8" fill="#cbd5e1"/>
  <rect x="150" y="252" width="150" height="44" rx="12" fill="#ffffff"/>

  <rect x="120" y="372" width="960" height="324" rx="20" fill="#ffffff" stroke="#dbe3ee"/>
  <rect x="150" y="406" width="300" height="16" rx="8" fill="#0f172a"/>
  <rect x="150" y="433" width="430" height="12" rx="6" fill="#cfd8e6"/>
  <rect x="150" y="468" width="900" height="62" rx="14" fill="#f8fafc" stroke="#dbe3ee"/>
  <rect x="150" y="544" width="900" height="62" rx="14" fill="#f8fafc" stroke="#dbe3ee"/>
  <rect x="150" y="630" width="170" height="38" rx="12" fill="#115e59"/>
</svg>
