<svg xmlns="http://www.w3.org/2000/svg" viewBox="0 0 1200 750" role="img" aria-label="Quiz Builder Screenshot Style">
  <defs>
    <linearGradient id="bg2" x1="0" x2="1" y1="0" y2="1">
      <stop offset="0%" stop-color="#f8fafc"/>
      <stop offset="100%" stop-color="#ecfeff"/>
    </linearGradient>
  </defs>
  <rect width="1200" height="750" fill="url(#bg2)"/>
  <rect x="24" y="20" width="1152" height="58" rx="14" fill="#fff" stroke="#dbe3ee"/>
  <rect x="46" y="38" width="170" height="22" rx="8" fill="#0f172a"/>
  <rect x="480" y="34" width="90" height="30" rx="10" fill="#fff" stroke="#cfd8e6"/>
  <rect x="582" y="34" width="90" height="30" rx="10" fill="#fff" stroke="#cfd8e6"/>
  <rect x="684" y="34" width="90" height="30" rx="10" fill="#115e59"/>

  <rect x="24" y="96" width="282" height="630" rx="16" fill="#ffffff" stroke="#dbe3ee"/>
  <rect x="48" y="124" width="180" height="14" rx="7" fill="#0f172a"/>
  <rect x="48" y="150" width="236" height="10" rx="5" fill="#cfd8e6"/>
  <rect x="48" y="184" width="234" height="54" rx="12" fill="#f8fafc" stroke="#dbe3ee"/>
  <rect x="48" y="248" width="234" height="54" rx="12" fill="#f8fafc" stroke="#dbe3ee"/>
  <rect x="48" y="312" width="234" height="54" rx="12" fill="#f8fafc" stroke="#dbe3ee"/>
  <rect x="48" y="376" width="234" height="54" rx="12" fill="#f8fafc" stroke="#dbe3ee"/>
  <rect x="48" y="448" width="120" height="34" rx="12" fill="#0f172a"/>
  <rect x="48" y="496" width="234" height="44" rx="12" fill="#eef2ff" stroke="#c7d2fe"/>
  <rect x="48" y="550" width="234" height="44" rx="12" fill="#eef2ff" stroke="#c7d2fe"/>

  <rect x="322" y="96" width="854" height="630" rx="16" fill="#ffffff" stroke="#dbe3ee"/>
  <rect x="350" y="124" width="220" height="14" rx="7" fill="#0f172a"/>
  <rect x="350" y="150" width="420" height="10" rx="5" fill="#cfd8e6"/>
  <rect x="350" y="184" width="798" height="70" rx="12" fill="#f8fafc" stroke="#dbe3ee"/>
  <rect x="374" y="206" width="220" height="12" rx="6" fill="#cfd8e6"/>
  <rect x="604" y="206" width="220" height="12" rx="6" fill="#cfd8e6"/>
  <rect x="834" y="206" width="220" height="12" rx="6" fill="#cfd8e6"/>

  <rect x="350" y="272" width="798" height="190" rx="14" fill="#ffffff" stroke="#dbe3ee"/>
  <rect x="374" y="302" width="260" height="14" rx="7" fill="#0f172a"/>
  <rect x="374" y="328" width="350" height="10" rx="5" fill="#cfd8e6"/>
  <rect x="374" y="356" width="742" height="36" rx="10" fill="#f8fafc" stroke="#dbe3ee"/>
  <rect x="374" y="402" width="742" height="36" rx="10" fill="#f8fafc" stroke="#dbe3ee"/>

  <rect x="350" y="478" width="392" height="220" rx="14" fill="#ffffff" stroke="#dbe3ee"/>
  <rect x="374" y="508" width="180" height="14" rx="7" fill="#0f172a"/>
  <rect x="374" y="534" width="330" height="10" rx="5" fill="#cfd8e6"/>
  <rect x="374" y="566" width="344" height="34" rx="10" fill="#eef2ff" stroke="#c7d2fe"/>
  <rect x="374" y="610" width="170" height="30" rx="10" fill="#115e59"/>

  <rect x="756" y="478" width="392" height="220" rx="14" fill="#ffffff" stroke="#dbe3ee"/>
  <rect x="780" y="508" width="180" height="14" rx="7" fill="#0f172a"/>
  <rect x="780" y="534" width="330" height="10" rx="5" fill="#cfd8e6"/>
  <rect x="780" y="566" width="344" height="112" rx="12" fill="#f8fafc" stroke="#dbe3ee"/>
</svg>
